# xmcd CD database file
#
# Track frame offsets:
#	150
#	14125
#	25489
#	38706
#	53699
#	65108
#	78844
#	92202
#	102678
#	115802
#	129749
#	145080
#
# Disc length: 2101 seconds
#
# Revision: 0
# Processed by: cddbd v1.5.2PL0 Copyright (c) Steve Scherf et al.
# Submitted via: CDex 1.50
#
DISCID=ab08330c
DTITLE=Big Julien And His All Star - Riviera Sound N°1
DYEAR=1970
DGENRE=Jazz
TTITLE0=An Oscar For Eddy
TTITLE1=Wake The Monster
TTITLE2=Edith
TTITLE3=Crescendo
TTITLE4=The Big Team
TTITLE5=Pace
TTITLE6=I Remenber Otis
TTITLE7=Talk
TTITLE8=The Looser
TTITLE9=Sonoro
TTITLE10=Time Square
TTITLE11=Opening
EXTD=YEAR: 1970
EXTT0=
EXTT1=
EXTT2=
EXTT3=
EXTT4=
EXTT5=
EXTT6=
EXTT7=
EXTT8=
EXTT9=
EXTT10=
EXTT11=
PLAYORDER=
